Land_normalized_Motion_pl15
version=1
nRows=24
nColumns=43
inDegrees=yes
endheader
time		pelvis_tilt		pelvis_list		pelvis_rotation		pelvis_tx		pelvis_ty		pelvis_tz		hip_flexion_r		hip_adduction_r		hip_rotation_r		knee_angle_r		ankle_angle_r		subtalar_angle_r		mtp_angle_r		hip_flexion_l		hip_adduction_l		hip_rotation_l		knee_angle_l		ankle_angle_l		subtalar_angle_l		mtp_angle_l		lumbar_extension		lumbar_bending		lumbar_rotation		neck_flexion		neck_lateral_bending		neck_rotation		arm_flex_r		arm_add_r		arm_rot_r		elbow_flex_r		pro_sup_r		wrist_flex_r		wrist_dev_r		hand_finger_flex_r		arm_flex_l		arm_add_l		arm_rot_l		elbow_flex_l		pro_sup_l		wrist_flex_l		wrist_dev_l		hand_finger_flex_l		
1.857500		0.108570		10.117890		86.374400		-0.017611		1.187231		0.663222		19.257290		-4.318254		-13.364366		-24.902620		-19.015083		2.235798		0.388312		16.216211		-4.952702		-21.212039		-18.200205		-25.480927		5.931482		4.617190		-31.285618		5.629687		12.216653		-28.800382		2.259899		-13.691103		-68.297817		-6.692838		-43.461232		38.790207		101.459658		8.049934		-2.359826		-26.534631		-80.085410		-17.925637		-20.189974		55.179302		128.667570		-24.731855		-14.477894		-17.176481		
1.861162		0.025929		10.182753		86.441651		-0.018600		1.174031		0.653802		18.735687		-4.419360		-13.450454		-23.812758		-18.790735		2.027850		0.493988		15.725833		-4.764571		-21.376953		-17.729430		-25.672988		6.047970		4.674240		-30.761139		5.714941		12.075279		-29.818547		2.173726		-13.852848		-68.606408		-6.047817		-43.816196		37.970961		101.700357		7.667048		-2.214728		-26.421324		-80.851682		-17.177283		-20.743016		54.698220		128.754714		-24.844306		-14.489684		-17.155286		
1.864823		-0.015443		10.839197		86.561569		-0.019567		1.161928		0.644495		17.511377		-4.551708		-13.831069		-22.638378		-18.901262		1.839313		1.038781		14.559832		-4.579108		-21.593760		-17.220132		-25.962841		6.418462		5.348231		-30.972974		5.805931		11.877638		-30.386357		2.087257		-13.952970		-68.529164		-5.194834		-45.194988		37.205019		103.806259		7.048854		-2.070015		-24.715834		-81.303454		-16.143118		-22.153006		54.062167		130.125982		-24.651330		-15.074258		-16.335907		
1.868485		-0.179417		10.918777		86.556244		-0.020472		1.148455		0.636029		17.191788		-4.743719		-13.779407		-21.851228		-18.959766		1.641984		1.081988		14.386018		-4.380885		-21.506394		-17.364477		-26.083653		6.448874		5.430247		-30.658991		5.785022		11.872001		-30.862935		1.932393		-14.057257		-68.619573		-4.590827		-45.437143		36.468523		104.018610		6.835070		-1.883914		-24.578232		-81.621246		-15.654313		-22.506939		53.470729		130.109310		-24.719503		-14.908485		-16.277970		
1.872146		-0.282155		11.005075		86.625318		-0.021277		1.135104		0.627581		16.941393		-4.889567		-13.743250		-21.268875		-19.313244		1.198783		1.046193		14.247879		-4.229334		-21.250877		-17.591347		-26.210659		6.325749		5.497406		-30.353706		5.813687		11.666399		-31.502245		1.737887		-14.283716		-68.341940		-4.132295		-45.892790		35.556515		104.130191		6.418519		-1.675133		-24.583280		-81.804534		-15.044922		-22.894004		52.679576		130.009335		-24.852278		-14.816432		-16.222370		
1.875808		-0.327339		11.129669		86.721579		-0.022407		1.121674		0.619697		16.763333		-5.008500		-13.698026		-20.902240		-19.781342		0.618688		1.005365		14.296622		-4.134206		-20.707664		-18.195646		-26.357648		6.066400		5.606349		-30.209100		5.962177		11.533089		-31.819630		1.511510		-14.425832		-68.026540		-3.655826		-46.438912		34.774597		104.334628		6.051711		-1.519503		-24.500698		-81.691591		-14.502359		-23.283947		51.789629		129.969344		-24.982015		-14.906533		-16.068205		
1.879470		-0.191464		10.838378		87.034217		-0.023607		1.107272		0.612408		17.139459		-4.950045		-13.738922		-20.806568		-20.359299		-0.243965		1.057633		15.153384		-4.203053		-19.339978		-19.314728		-26.485043		5.330298		5.994203		-29.689969		6.419872		11.264129		-32.028454		1.116807		-14.517686		-67.615301		-3.099047		-47.416252		34.243702		105.262644		5.919540		-1.391887		-23.906188		-81.348286		-14.023407		-23.678817		50.597553		129.869596		-25.360385		-15.368405		-15.369580		
1.883131		-0.219771		10.987909		87.135743		-0.024466		1.093509		0.605194		17.209884		-5.055526		-13.428555		-21.063067		-20.617463		-0.459469		1.071433		15.475020		-4.197962		-18.692399		-20.485285		-26.538207		5.105383		6.130132		-29.698876		6.552534		11.120443		-32.107712		0.855221		-14.557032		-67.122493		-2.702092		-47.841120		33.734403		105.461202		5.762182		-1.305118		-23.781713		-80.966767		-13.629435		-23.933613		49.660518		129.698294		-25.483369		-15.222796		-15.152226		
1.886793		-0.127505		10.702429		87.348082		-0.025467		1.078694		0.598596		17.907312		-4.993735		-12.836058		-21.644071		-20.839496		-0.949380		1.075397		16.562574		-4.254126		-17.318335		-22.086639		-26.381183		4.455430		6.207692		-29.354598		6.894142		10.852445		-31.803305		0.370232		-14.614337		-66.378556		-2.321656		-48.705587		33.173776		105.407986		5.478815		-1.458100		-23.781689		-80.290546		-13.207231		-24.054483		48.323757		129.405839		-25.960145		-15.295272		-15.011945		
1.890455		-0.090033		10.620527		87.471171		-0.026360		1.064046		0.592067		18.494818		-4.987462		-12.099541		-22.486024		-20.904258		-0.967530		1.081898		17.448671		-4.309418		-16.293871		-23.760271		-26.468657		4.153743		6.161895		-29.256856		7.112587		10.657032		-31.528504		-0.006722		-14.651525		-65.705680		-2.091250		-48.996348		32.837178		105.462431		5.446100		-1.507641		-23.760523		-79.589850		-12.835939		-24.171784		47.172740		129.046222		-26.170821		-15.050729		-14.901879		
1.894116		-0.029794		10.258950		87.623124		-0.027120		1.048533		0.586003		19.594265		-4.915840		-11.183424		-23.722617		-20.908622		-0.871390		1.043475		18.824433		-4.372464		-15.069519		-25.682020		-26.595087		3.683255		5.935603		-28.922095		7.363362		10.466804		-31.133698		-0.397076		-14.664472		-64.955300		-1.843478		-49.278275		32.615623		105.491440		5.485320		-1.707304		-23.776217		-78.786165		-12.577516		-24.190081		45.967921		128.575368		-26.474738		-14.865214		-14.838985		
1.897778		0.011762		9.702444		87.713955		-0.027864		1.032363		0.580178		21.071629		-4.827521		-10.102895		-25.226063		-20.969597		-0.630930		0.916329		20.522246		-4.416155		-13.935128		-27.735018		-26.917987		3.092439		5.564832		-28.420533		7.592088		10.361016		-30.678559		-0.830767		-14.662991		-64.206343		-1.635183		-49.389555		32.471326		105.465419		5.612956		-2.059771		-23.862277		-77.910065		-12.420451		-24.085494		44.770813		128.031520		-26.744717		-14.677372		-14.921844		
1.901439		0.048839		9.541857		87.740134		-0.028392		1.016873		0.574200		22.120106		-4.716023		-9.033385		-26.735307		-21.227065		-0.203326		0.907099		21.667849		-4.475796		-13.087725		-29.553455		-27.381742		2.968023		5.554433		-28.372776		7.721451		10.237380		-30.189608		-1.108046		-14.735203		-63.332588		-1.567713		-49.256058		32.431414		105.439736		5.711668		-2.295114		-23.947689		-76.968578		-12.193686		-24.074932		43.689717		127.537601		-26.745581		-14.237907		-15.036698		
1.905101		0.081908		9.488911		87.758907		-0.028858		1.001415		0.568307		23.115227		-4.594448		-8.017646		-28.344999		-21.487702		0.230015		1.005295		22.688281		-4.498737		-12.249128		-31.301373		-27.635497		2.941992		5.768079		-28.477153		7.835952		10.126835		-29.629465		-1.333021		-14.814357		-62.374522		-1.516893		-49.072217		32.460231		105.404179		5.797783		-2.517603		-24.023754		-75.954533		-12.000661		-24.090081		42.659938		127.073400		-26.693439		-13.764799		-15.160045		
1.908763		0.106774		9.085181		87.712232		-0.029299		0.984889		0.562554		24.649348		-4.445527		-6.986210		-30.229352		-21.378687		0.766195		1.844265		24.215235		-4.536017		-11.435190		-33.325335		-27.097281		3.148801		7.189165		-28.222512		7.946123		10.105879		-29.028561		-1.674522		-14.789745		-61.473882		-1.492017		-48.731320		32.576239		105.296587		5.893983		-3.010233		-24.120504		-74.965970		-11.933917		-23.891869		41.696575		126.564743		-26.573204		-13.394816		-15.470147		
1.912424		0.125324		9.329237		87.725781		-0.029740		0.969633		0.556876		25.407760		-4.308712		-6.056064		-32.107837		-20.621423		1.095910		2.607109		24.882788		-4.446059		-10.551011		-35.164426		-25.545678		3.450832		8.302648		-28.752900		8.013287		9.984147		-28.090226		-1.917443		-14.803172		-60.337438		-1.530727		-48.425250		32.752096		105.255372		5.923402		-3.231443		-24.134204		-73.798724		-11.761407		-23.931472		40.794429		126.266073		-26.354584		-12.851030		-15.547366		
1.916086		0.242172		8.182211		87.762772		-0.030104		0.951190		0.551153		27.906168		-4.034308		-5.267988		-34.549523		-19.788021		1.172554		11.668258		27.385225		-4.575389		-9.459454		-37.730280		-23.498463		4.393289		19.735212		-27.644636		8.261881		9.948823		-27.767742		-2.127773		-14.671994		-59.519441		-1.735617		-47.128080		32.786956		104.266025		5.550219		-3.977993		-24.148603		-72.980079		-11.870487		-23.492115		40.177686		125.294068		-25.808610		-12.608235		-16.929427		
1.919747		0.249349		8.832008		87.773658		-0.030389		0.936565		0.545569		28.197078		-3.836818		-4.422190		-36.927724		-16.286236		1.448317		13.102374		27.599176		-4.426985		-8.555654		-40.131436		-18.953574		5.108096		21.306009		-28.706900		8.266796		9.788819		-26.558379		-2.354971		-14.622762		-58.192414		-1.860939		-46.768275		33.101595		104.242439		5.562701		-4.267341		-24.062763		-71.724334		-11.722477		-23.512120		39.475349		125.296667		-25.524141		-12.181648		-16.870246		
1.923409		0.382886		8.779086		87.784172		-0.030609		0.920279		0.540010		29.401189		-3.512977		-3.835656		-39.936945		-11.319149		1.955670		14.770025		28.822836		-4.487855		-7.493453		-43.332720		-12.821121		7.048920		22.757782		-28.923488		8.419570		9.712081		-25.796302		-2.437119		-14.383680		-57.070472		-2.053075		-45.988123		33.452705		104.146801		5.438289		-5.023713		-23.972317		-70.786020		-11.644782		-23.487890		39.214100		125.227361		-25.293348		-11.989993		-16.797362		
1.927071		0.482026		8.853610		87.833868		-0.030895		0.904500		0.534969		30.482464		-3.148160		-3.239275		-43.130588		-5.828485		1.685969		15.555726		30.030453		-4.401704		-6.430559		-46.826381		-6.746696		7.948976		23.213453		-29.386677		8.545807		9.621673		-24.783615		-2.589187		-14.178236		-55.745543		-2.299352		-45.184190		33.760213		103.973328		5.255419		-5.658805		-23.904270		-69.649791		-11.597125		-23.453673		38.965960		125.093856		-25.082054		-11.837746		-16.624075		
1.930732		0.703916		8.306885		87.904038		-0.031154		0.887774		0.530628		32.428578		-2.612017		-2.829090		-46.722551		0.123859		1.065998		11.808900		32.202682		-4.355253		-5.176847		-50.776629		-0.770610		8.670912		18.366329		-29.275151		8.806695		9.474885		-23.653115		-2.746554		-14.017696		-54.291227		-2.999888		-43.049888		33.637000		102.161371		4.211483		-6.522246		-23.496392		-68.386553		-11.474544		-23.356663		38.612932		124.488678		-25.114039		-11.882368		-15.648841		
1.934394		0.950939		8.551500		87.776353		-0.031221		0.873025		0.526498		33.527165		-2.110960		-2.594116		-50.202702		5.353165		0.985298		9.977877		33.486683		-4.516697		-4.509334		-54.630276		4.062980		9.521509		16.902498		-30.158119		8.969959		9.554626		-22.312969		-2.804838		-13.705403		-52.569665		-3.515311		-41.968294		33.773065		102.055626		3.844062		-7.187942		-23.322568		-66.931991		-11.358233		-23.238740		38.426111		124.009789		-25.083542		-11.801829		-15.051927		
1.938056		1.181468		8.347401		87.648203		-0.031615		0.857833		0.523132		35.430808		-1.556275		-2.308258		-53.892960		9.810010		-0.068314		3.285649		35.531246		-4.468248		-3.681298		-58.661676		8.016610		9.049534		11.773996		-30.597779		9.188357		9.713016		-21.113489		-2.885270		-13.426702		-50.958452		-4.140335		-40.211679		33.965673		100.784885		2.908976		-7.970845		-22.771687		-65.417268		-11.389273		-22.714195		38.289638		122.919875		-25.665741		-12.125100		-13.460539		
1.941717		1.316521		9.020578		87.443460		-0.032079		0.844896		0.520264		36.474886		-1.267418		-2.256075		-57.381267		12.467069		-0.919708		3.328665		36.572715		-4.422291		-3.331883		-62.285209		10.354883		8.545951		11.875567		-32.157833		9.231748		9.855057		-19.513091		-3.124990		-13.327622		-48.908554		-4.590574		-39.793855		34.393433		100.818272		2.797423		-8.188431		-22.747699		-63.706665		-11.307929		-22.471643		38.361989		122.825844		-25.579916		-12.029132		-13.286671		
